# xmcd
#
# Track frame offsets:
#	150
#	11137
#	21067
#	33757
#	45742
#	56810
#	66335
#	77095
#	88590
#	101482
#	112697
#	122675
#	133600
#	145975
#	155240
#	166002
#	177730
#	188467
#	198810
#	210007
#	222612
#	233520
#	243655
#	252522
#	265412
#	279720
#
# Disc length: 3902 seconds
#
# Revision: 0
# Processed by: cddbd v1.5.2PL0 Copyright (c) Steve Scherf et al.
# Submitted via: EasyCDDAExtractor 16.0.1.1
#
DISCID=700f3c1a
DTITLE=Lee Dorsey - The EP Collection
DYEAR=196
DGENRE=Rhythm and Blues
TTITLE0=Ya Ya
TTITLE1=Do-Re-Mi
TTITLE2=Ride Your Pony
TTITLE3=Can You Hear Me
TTITLE4=Work  Work  Work
TTITLE5=The Kitty Cat Song
TTITLE6=Get Out of My Life Woman
TTITLE7=Here Comes the Hurt Again
TTITLE8=Shortnin' Bread
TTITLE9=Hello Mama
TTITLE10=You're Breaking Me Up
TTITLE11=Messed Around (And Fell in Love)
TTITLE12=Working in the Coal Mine
TTITLE13=Mexico
TTITLE14=Confusion
TTITLE15=Neighbour's Daughter
TTITLE16=Organ Grinder's Swing
TTITLE17=I Gotta Find a New Love
TTITLE18=Holy Cow
TTITLE19=Rain  Rain Go Away
TTITLE20=Gotta Find a Job
TTITLE21=A Mellow Good Time
TTITLE22=My Old Car
TTITLE23=Love Lots of Lovin'
TTITLE24=Everything I Do Gonh Be Funky (From Now On)
TTITLE25=Sneakin' Sally Through the Alley
EXTD=
EXTT0=
EXTT1=
EXTT2=
EXTT3=
EXTT4=
EXTT5=
EXTT6=
EXTT7=
EXTT8=
EXTT9=
EXTT10=
EXTT11=
EXTT12=
EXTT13=
EXTT14=
EXTT15=
EXTT16=
EXTT17=
EXTT18=
EXTT19=
EXTT20=
EXTT21=
EXTT22=
EXTT23=
EXTT24=
EXTT25=
PLAYORDER=
